<?xml version="1.0" standalone="no"?>
<!DOCTYPE svg PUBLIC "-//W3C//DTD SVG 1.1//EN" "http://www.w3.org/Graphics/SVG/1.1/DTD/svg11.dtd">
<svg xmlns="http://www.w3.org/2000/svg">
<metadata>Generated by Fontastic.me</metadata>
<defs>
<font id="frb" horiz-adv-x="512">
<font-face font-family="frb" units-per-em="512" ascent="480" descent="-32"/>
<missing-glyph horiz-adv-x="512" />

<glyph glyph-name="arrow-down" unicode="&#57344;" d="M126 215l-118 118 486 0-118-118c-65-65-121-118-125-118-4 0-60 53-125 118z"/>
<glyph glyph-name="arrow-left" unicode="&#57345;" d="M229 137c-64 64-116 120-116 124 0 4 53 60 117 125l118 118 0-242c0-133 0-242-1-242-1 0-54 53-118 117z"/>
<glyph glyph-name="arrow-right" unicode="&#57346;" d="M154 261l0 243 117-118c65-65 118-121 118-125 0-4-53-60-118-125l-117-118z"/>
<glyph glyph-name="arrow-up" unicode="&#57347;" d="M126 277c65 64 121 117 125 117 4 0 60-53 125-117l118-118-486 0z"/>
<glyph glyph-name="grid-view" unicode="&#57348;" d="M0 72l0 72 70-2 71-1 1-71 2-70-144 0z m184 0l0 71 139 0 0-143-139 0z m186-2l1 71 71 1 70 2 0-144-144 0z m-370 189l0 69 143 0 0-139-143 0z m184 0l0 69 139 0 0-139-139 0z m185 0l0 69 143 0 0-139-143 0z m-369 181l0 72 144 0-2-70-1-71-71-1-70-2z m184 0l0 72 139 0 0-143-139 0z m188-68c-2 2-3 34-3 72l0 68 143 0 0-143-68 0c-38 0-70 1-72 3z"/>
<glyph glyph-name="location" unicode="&#57349;" d="M216 89c-82 144-118 233-112 281 9 71 67 128 139 135 79 8 151-45 168-123 7-36-1-72-33-145-18-42-96-186-113-212-7-9-11-4-49 64z m96 157c59 30 82 97 55 156-29 61-98 86-160 57-30-15-44-29-58-60-31-67 9-145 84-164 21-5 57 0 79 11z"/>
<glyph glyph-name="phone" unicode="&#57350;" d="M124 16c-9 9-9 471 0 480 9 8 255 8 264 0 9-9 9-471 0-480-9-8-255-8-264 0z m147 17c14 16-6 42-24 30-12-7-14-19-4-29 11-10 20-11 28-1z m96 232l-1 173-220 0-1-173-2-173 226 0z m-97 199c1 4-1 12-6 16-7 8-9 8-16 0-11-10-6-24 8-24 6 0 12 3 14 8z"/>
<glyph glyph-name="abacus" unicode="&#57351;" d="M3 24c-1 2-3 15-3 29 0 20 2 25 10 27 10 3 10 7 10 204 0 173 2 202 8 208 12 9 23-3 23-27 0-17 2-20 12-20 10 0 13 4 16 16 5 27 45 25 52-3 4-14 12-12 12 3 0 25 49 24 52-1 3-16 30-21 30-5 0 12 16 26 29 26 12 0 28-15 28-27 0-8 9-9 89-9l89 0 2 25c1 20 3 24 12 24 10 0 10-4 11-205 1-201 2-206 12-209 8-2 10-7 10-31l0-29-250 0c-138 0-252 2-254 4z m458 109l0 51-53 0-52 0-8-16c-12-27-51-24-51 4 0 11-2 12-25 12-24 0-25-1-28-15-2-11-7-16-16-18-18-5-28 0-35 18-7 19-14 20-14 3 0-8-4-15-10-19-18-9-33-3-42 16-6 12-9 15-9 8 0-13-15-29-28-29-13 0-29 15-29 27 0 5-2 9-5 9-3 0-5-20-5-51l0-51 410 0z m-400 85c0 13 16 28 28 28 13 0 29-15 29-28 1-8 2-7 8 6 12 28 53 27 53-1 0-18 7-16 14 2 7 18 17 23 35 19 9-3 14-8 16-19 3-14 4-15 27-15 23 0 25 1 28 15 5 28 45 26 52-2 3-13 4-13 57-13l53 0 0 97-16 0c-11 0-15-2-15-9 0-14-10-22-30-22-14 0-18 3-23 16-7 19-19 19-30 0-14-24-50-20-50 6 0 9-8 9-123 9l-123 0 0-48c0-29 2-49 5-49 3 0 5 4 5 8z m236 129c0 13 10 22 27 22 11 0 17-4 23-16 11-19 23-19 30 0 5 13 9 16 23 16 20 0 30-8 30-22 0-7 4-9 15-9l16 0 0 82-90 0c-80 0-89-1-89-9 0-12-16-27-28-27-13 0-29 14-29 27 0 15-27 10-30-6-3-27-52-26-52 2 0 18-6 16-15-4-12-27-51-23-51 4 0 10-3 13-13 13-13 0-13-1-13-41l0-41 123 0c115 0 123 1 123 9z"/>
<glyph glyph-name="clock" unicode="&#57352;" d="M199 8c-86 23-152 93-169 180-11 62 4 132 40 179l17 23-13 15c-14 17-15 23-7 28 4 2 12-3 21-12l14-16 26 17c14 10 39 22 54 27l27 8 2 26 1 26 93 0 1-26c2-25 3-28 16-31 18-4 51-20 71-35l16-13 15 16c9 10 17 15 21 13 8-5 7-11-8-28l-13-16 10-12c29-32 52-95 52-142 0-86-53-174-125-209-52-25-112-32-162-18z m146 35c160 79 159 299 0 378-42 20-101 25-146 12-60-17-115-68-139-127-8-20-11-39-11-76 0-44 1-51 16-83 20-43 54-80 93-100 40-22 62-27 110-24 34 1 47 5 77 20z m-103 11c-4 11 7 22 15 14 6-7 2-22-6-22-3 0-7 4-9 8z m89 16c-7 7-3 23 6 21 5-1 9-6 9-11 0-10-9-16-15-10z m-175 6c-4 7 3 21 11 21 10 0 14-9 7-18-7-8-13-9-18-3z m239 57c-8 4-5 21 4 21 7 0 17-15 13-21-4-6-8-6-17 0z m-300 10c-5 8 2 16 13 16 12 0 13-13 2-18-11-4-12-4-15 2z m146 58c-7 4-15 14-18 23-3 13-13 22-45 42-22 14-40 28-40 31 0 13 17 9 54-15 33-21 42-25 57-22 21 3 38-9 38-29 0-16-5-23-19-31-14-7-12-7-27 1z m25 29c0 7-3 11-10 11-7 0-10-4-10-11 0-6 3-10 10-10 7 0 10 4 10 10z m151-10c-2 4-1 9 2 12 7 6 23 0 20-8-3-9-17-11-22-4z m-342 9c-8 8-3 17 10 17 10 0 13-3 11-9-1-9-15-15-21-8z m322 78c-5 8 2 16 13 16 7 0 10-3 9-9-2-11-17-15-22-7z m-296 9c-8 8-3 17 8 16 14-2 19-20 5-20-5 0-11 2-13 4z m238 53c-8 8-2 20 10 20 11 0 13-11 3-20-5-4-9-4-13 0z m-169 6c-9 9-7 19 4 19 7 0 10-3 10-10 0-12-7-17-14-9z m84 17c-7 8-3 23 7 23 8 0 11-3 9-11-1-12-9-18-16-12z m33 84c0 15-1 16-28 16-28 0-29-1-29-16 0-15 1-15 29-15 27 0 28 0 28 15z"/>
<glyph glyph-name="connected" unicode="&#57353;" d="M28 5c-6 10 3 39 16 54 12 13 12 14 4 29-20 39 20 79 59 58 21-10 28-34 18-57-7-18-7-19 5-33 13-16 21-42 16-51-4-7-114-7-118 0z m77 85c16 16 5 43-17 43-18 0-27-8-27-26 0-23 28-33 44-17z m264-78c0 18 8 37 20 49 9 9 9 12 3 25-5 7-8 19-8 25 0 15 18 36 36 40 16 4 43-8 48-21 5-13 4-37-3-48-5-8-5-12 5-22 13-13 24-47 19-55-2-3-29-5-62-5l-58 0z m79 80c12 14 7 35-11 39-18 5-30-3-32-20-3-27 24-39 43-19z m-359 83c-4 6 58 71 68 71 14 0 6-14-25-45-34-34-37-36-43-26z m293 30c-30 29-34 36-27 39 7 2 17-5 40-27 26-26 38-48 26-48-2 0-20 16-39 36z m-207-28c-17 7 0 70 26 94l14 12-10 13c-13 15-14 47-3 68 22 41 92 40 112-2 11-24 11-44-2-64l-10-18 11-7c14-10 35-56 35-77 0-10-3-17-8-19-10-4-155-3-165 0z m89 84c1 3-1 5-5 5-5 0-7-2-6-5 2-3 4-5 6-5 1 0 3 2 5 5z m23 41c12 12 13 39 2 55-17 25-58 17-69-13-6-15 2-39 15-47 14-8 41-6 52 5z m-166-11c-19 19-34 36-34 38 0 2 4 4 9 4 10 0 68-56 68-65 0-15-11-9-43 23z m232-26c0 5 15 24 33 42 28 27 34 31 37 24 2-7-5-18-29-42-35-35-41-38-41-24z m-325 99c-6 9 2 37 15 53 11 14 12 17 5 30-20 38 23 80 60 59 6-3 14-13 18-23 7-16 7-20 0-33-7-15-7-17 2-29 12-15 22-45 19-55-3-6-15-8-59-8-35 0-58 3-60 6z m64 56c0 3-2 5-5 5-3 0-5-2-5-5 0-3 2-5 5-5 3 0 5 2 5 5z m11 29c11 9 13 27 3 36-7 8-30 8-38 0-14-14-2-45 18-45 4 0 12 4 17 9z m267-83c-4 12 7 45 19 56 9 9 9 11 2 24-11 21-9 34 8 51 19 19 42 20 59 2 14-13 17-41 7-58-5-8-4-12 5-21 13-14 24-44 20-54-5-12-115-11-120 0z m65 54c0 3-2 5-5 5-3 0-5-2-5-5 0-3 2-5 5-5 3 0 5 2 5 5z m13 31c14 15 5 37-14 40-19 2-30-7-30-25 0-25 27-34 44-15z"/>
<glyph glyph-name="credit-card" unicode="&#57354;" d="M63 32c-6 6-63 204-63 217 0 11 16 19 65 33l50 14 7 32c3 18 8 34 10 36 2 2 34-3 72-11l68-14 34 9c38 12 51 8 56-15 2-14 5-15 61-26 32-7 61-13 63-15 7-4-17-112-26-119-4-2-18-3-31-1l-23 3 5-21c10-38 25-31-205-95-124-34-135-37-143-27z m172 56c83 23 154 43 156 45 4 4-19 99-27 112-2 4-61-10-159-38-85-23-156-44-158-45-2-3 23-102 28-112 3-6-6-8 160 38z m-153 4c-8 28-5 33 20 40 25 8 29 6 33-13 1-8 4-18 6-23 4-10-7-17-35-22-18-3-18-3-24 18z m49 141c48 13 117 33 153 43 71 20 70 20 59 49l-4 12-92-26c-50-13-121-33-157-43-37-10-68-19-69-20 0-1 2-11 5-22 4-13 9-21 13-19 3 1 45 13 92 26z m326 12c3 13 3 24 0 27-2 2-15 6-28 8-23 3-23 3-26-14-8-36 1-47 35-44 13 1 15 3 19 23z m-86 129c-65 14-142 31-171 37l-54 11 2 21c1 11 5 25 11 30 9 9 12 9 154-21 80-18 154-33 164-35 28-5 37-17 33-46-3-17-6-23-12-22-5 0-62 11-127 25z"/>
<glyph glyph-name="package" unicode="&#57355;" d="M0 154l0 153 205 0 0-143 102 0 0 143 205 0 0-307-512 0z m184-103c0 10-3 10-71 10-69 0-72 0-72-10 0-10 3-10 72-10 68 0 71 0 71 10z m-41 41c0 10-3 10-51 10-48 0-51 0-51-10 0-9 3-10 51-10 48 0 51 1 51 10z m41 41c0 10-3 10-71 10-69 0-72 0-72-10 0-10 3-10 72-10 68 0 71 0 71 10z m41 113l0 61 62 0 0-123-62 0z m-220 91c3 5 25 41 50 80l45 72 63 1c36 1 62 0 62-3 0-2-4-39-10-81-6-42-10-76-10-77 0-1-46-1-103-1-96 0-102 0-97 9z m220-8c0 1 5 37 11 81 5 43 10 80 10 80 0 1 4 2 10 2 6 0 10-1 10-2 0 0 5-37 10-80 6-44 11-80 11-81 0-1-14-1-31-1-17 0-31 0-31 1z m82 0c0 1-4 35-10 77-6 42-10 79-10 81 0 3 26 4 62 3l63-1 45-72c25-39 47-75 50-80 5-9-1-9-97-9-57 0-103 0-103 1z"/>
<glyph glyph-name="staff" unicode="&#57356;" d="M143 68c-12 6-12 8-12 66 0 59 0 60 14 75 8 9 22 19 31 23 18 9 25 7 58-24l22-20 25 23c13 13 27 24 32 26 11 4 44-16 58-34 9-12 11-23 12-66 2-77 10-73-120-74-80-1-110 0-120 5z m-137 20c-8 8-8 68 0 83 20 38 48 45 75 17 16-16 16-18 16-62l0-44-42 0c-26 0-45 2-49 6z m409 42l0 49 17 13c29 22 54 15 70-20 11-23 13-56 5-77-5-13-6-13-49-13l-43 0z m-348 124c-40 33-20 110 29 109 33 0 47-19 47-64 0-25-2-30-15-43-19-19-40-20-61-2z m317 2c-14 13-15 18-15 48 0 43 12 60 46 60 33 0 46-17 46-60 0-30-2-35-15-48-10-11-20-15-31-15-11 0-21 4-31 15z m-167 10c-27 18-40 48-40 91 0 29 2 39 10 51 28 36 71 47 107 26 27-16 39-40 39-80 0-35-11-61-33-82-19-18-61-21-83-6z"/>
<glyph glyph-name="close" unicode="&#57357;" d="M24 29l-25 24 102 101 101 102-101 101-101 101 26 26 25 25 202-202 203 202 26-26 27-27-102-100-102-99 102-103 102-103-23-23c-12-12-25-23-28-23-3 0-49 44-102 97-54 54-100 98-103 98-2 0-49-44-102-98-53-53-98-97-100-97-1 0-14 11-27 24z"/>
<glyph glyph-name="performance" unicode="&#57358;" d="M15 74c0 42 2 74 5 74 3 0 17-2 31-6l26-6 0-136-62 0z m96-71c-2 2-3 32-3 67l0 63 66 0 0-133-30 0c-16 0-31 2-33 3z m94 68l0 70 22 6c12 3 25 7 30 9 9 4 9-2 9-76l0-80-61 0z m94-64c-1 3-2 43-1 87l2 81 64 46 0-221-31 0c-21 0-32 2-34 7z m95 121l0 128 21 32c11 17 25 45 30 62l10 31 0-190 1-191-62 0z m-340 29c-46 11-47 17-2 17 104 0 193 55 239 149 12 24 23 52 25 62l3 19-32 1-32 2 60 51c33 28 60 51 61 51 1 0 28-23 61-51l59-51-26-3-26-2-7-28c-34-133-162-226-312-225-22 0-54 4-71 8z"/>
<glyph glyph-name="team" unicode="&#57359;" d="M64 39c-107 56-72 212 47 212l30 0 11 26 11 25-10 24c-8 18-10 31-9 56 3 43 22 71 60 90 48 24 92 17 130-21 37-37 45-89 20-132l-10-16 13-26 14-25 34-2c43-2 72-20 90-55 11-20 12-29 11-60-2-31-4-41-17-59-9-12-26-27-38-34-20-10-29-12-60-10-44 2-72 18-93 54l-14 24-32 0c-28 0-32-1-34-11-4-17-32-47-55-58-24-13-77-14-99-2z m94 9c20 10 42 34 50 53 9 21 9 58 0 80-13 32-62 65-95 65-36 0-87-37-98-70-23-71 34-145 107-138 12 2 28 6 36 10z m-94 23c-23 5-24 27-2 47 9 8 19 15 24 15 6 0 6 2-1 13-19 29-3 69 29 69 30 0 45-40 26-69-7-11-7-13 0-13 4 0 15-7 24-15 12-11 16-19 14-29-2-17-14-21-65-21-19 0-41 1-49 3z m59 8c5 6 5 13-1 31-3 13-8 23-9 23-2 0-6-10-10-23-5-18-6-25-1-31 4-4 9-7 11-7 2 0 6 3 10 7z m321-29c25 13 46 39 53 68 19 72-51 140-125 122-33-8-67-40-75-72-24-86 67-160 147-118z m-100 22c-12 4-16 8-16 16 0 10 27 41 40 46 7 2 6 4-1 15-5 6-9 19-9 26 0 19 21 40 39 40 18 0 38-21 38-40 0-7-4-20-8-26-8-11-8-13-2-15 14-4 41-35 41-46 0-8-5-12-19-16-24-7-80-6-103 0z m65 7c5 5 4 12-3 30l-9 24-10-23c-7-19-8-25-3-31 8-9 17-9 25 0z m-139 47c8 2 11 8 14 28 4 30 27 67 48 79 9 6 16 13 16 17 0 10-15 38-19 36-41-22-56-26-84-23-18 1-37 7-48 14-18 11-19 11-25 1-11-14-15-34-8-37 14-4 43-35 52-54 5-11 9-29 9-39 0-14 3-20 9-22 14-3 23-3 36 0z m31 156c61 30 75 112 28 161-22 23-45 33-74 33-46 0-90-35-101-80-11-44 13-93 58-117 23-11 62-10 89 3z m-108 26c-5 2-9 8-9 12 0 10 29 42 42 46 10 3 10 4-1 16-13 17-13 33 1 50 13 17 40 18 56 3 12-12 13-39 2-54-7-10-6-12 12-23 10-7 21-19 24-27 7-20-6-29-40-29-25 0-25 0-17 10 8 9 8 11 1 28-4 9-6 19-4 21 1 1 1 3-2 3-3 0-9-11-13-23-8-21-8-23 0-31 7-7 6-8-17-8-14 0-30 3-35 6z"/>
<glyph glyph-name="deal" unicode="&#57360;" d="M109 114c-62 62-69 75-47 96 21 19 33 14 88-40 28-27 54-56 58-63 12-24-5-51-32-51-6 0-36 26-67 58z m123-44c-4 1-7 11-7 21 0 17-5 24-60 79-56 56-62 60-80 60-14 0-23-3-32-13-13-12-14-13-32-6l-18 7-2 90c-2 109-2 108 50 87l33-13 50 27c55 29 73 32 93 15l14-10-23-25c-20-21-23-28-23-46 0-17 3-24 15-36 18-19 38-20 62-3l18 12 46-55c25-31 51-58 58-62 27-12 28-13 27-28-2-21-11-28-91-68-69-34-83-39-98-33z m169 138c-4 2-30 30-58 64-29 33-53 61-55 61-2 0-10-6-17-14-18-16-37-17-54-1-22 21-17 34 36 86 31 30 52 47 59 47 15 0 26-7 69-38 36-26 37-26 82-29l46-3 2-74c1-56 0-76-5-81-8-6-71-21-88-21-6 0-14 2-17 3z"/>
<glyph glyph-name="shield" unicode="&#57361;" d="M217 19c-70 38-122 84-141 127-9 20-9 33-8 162l1 140 41 3c67 5 106 19 132 47l14 15 14-15c26-28 65-42 132-47l41-3 1-135c1-80-1-143-4-154-11-43-69-99-142-138-23-11-42-21-43-21-1 0-18 9-38 19z m69 53c46 24 86 58 103 88l15 27 0 108 0 108-16 3c-8 2-23 4-32 4-27 0-67 14-84 30l-16 15-16-15c-17-16-57-30-84-30-9 0-24-2-32-4l-16-3 0-107c0-79 1-111 7-124 14-34 52-68 113-101 14-8 26-15 27-15 1 0 15 7 31 16z m-94 128l-51 51 14 13c8 7 16 12 18 12 2 0 15-8 28-19l25-20 38 37c37 37 98 84 109 84 2 0 6-3 8-8 2-5-6-18-25-39-35-38-75-94-95-133-9-16-16-30-17-30 0 0-24 24-52 52z"/>
<glyph glyph-name="client" unicode="&#57362;" d="M35 4c-8 2-9 9-9 55 0 62 6 82 31 101 21 15 125 57 132 53 2-2 10-18 17-36 6-19 14-34 16-34 2 0 3 6 1 12-8 26-8 27 30 27 39 0 39-1 31-27-2-6-1-12 1-12 3 0 9 14 15 31 5 17 12 33 15 36 10 9 124-39 144-59 19-20 22-35 22-95 0-40-1-46-10-51-9-5-417-7-436-1z m387 78l0 28-42 2c-27 1-46-1-50-5-8-6-10-46-4-53 2-2 25-3 50-2l46 2z m-199 138c-19 6-31 17-47 44-7 13-16 23-20 23-11 0-28 30-28 51 0 9 4 21 8 26 6 7 7 12 2 31-6 20-5 26 3 43 6 12 16 23 25 27 9 4 23 14 31 22 37 35 99 32 136-5 21-21 30-47 30-86 1-17 3-28 8-32 17-14 4-68-17-75-6-1-18-14-27-29-24-38-61-52-104-40z m63 29c6 4 17 18 24 30 7 13 19 26 27 29 16 8 24 32 14 42-4 4-8 12-9 19-1 11-5 13-42 18-46 7-56 10-75 23-13 9-14 9-25-6-6-8-17-18-24-21-8-4-12-10-12-18 0-6-2-12-5-12-8 0-10-15-5-28 2-7 10-15 17-18 7-2 18-14 23-25 15-28 33-41 59-41 12 0 26 3 33 8z"/>
<glyph glyph-name="experience" unicode="&#57363;" d="M236 34c-25 55-30 58-83 58-52 0-52 0-58 46-4 33-20 71-31 75-11 5-9 19 7 50 14 26 14 30 12 78-3 61 4 79 42 114 65 59 148 71 226 33 65-32 101-89 102-160 0-41-4-52-49-123-13-20-17-33-18-53-1-23-3-27-28-53-15-16-46-44-67-64l-40-36z m69 224c8 7 13 15 11 17-2 1-1 6 1 9 6 7-17 38-23 32-2-2-7-1-10 1-7 6-38-17-32-23 2-2 2-7-1-10-6-7 16-36 25-31 2 2 6 1 8-2 4-7 4-7 21 7z m-28 21c-6 6-5 8 2 11 12 4 20-5 11-13-5-4-8-4-13 2z m87 39c0 3 5 7 13 10 10 4 12 7 9 16-2 6-1 12 3 14 7 5 1 21-8 21-4 0-7 4-7 10 0 11-14 18-19 10-2-4-5-4-8 0-9 8-24 7-24-2 0-4-4-8-7-8-4 0-10-3-14-8-5-6-5-9 0-15 5-6 5-8 0-8-3 0-5-5-4-11 1-6 5-11 8-10 3 0 6-3 6-9 0-10 12-17 23-13 4 2 8 1 10-2 4-6 19-2 19 5z m-30 31c-8 9 0 21 12 19 12-2 13-22 2-24-5-1-11 2-14 5z m-107-30c2 5 4 5 12 0 13-7 32 5 29 19-2 8 0 10 7 10 13 0 20 25 8 29-5 2-6 8-4 17 3 15-8 29-18 23-3-2-7 1-8 7-4 15-23 20-31 9-5-8-8-8-14-3-11 9-29-2-27-17 0-8-2-11-8-10-14 3-18-23-6-32 8-6 9-8 2-12-10-7-1-23 14-25 6-1 12-6 13-12 3-11 27-14 31-3z m-20 50c-4 15 8 27 23 23 17-6 13-30-6-33-10-1-14 2-17 10z"/>
<glyph glyph-name="globe" unicode="&#57364;" d="M190 13c-42 12-76 32-111 67-74 73-94 182-53 279 11 24 29 41 23 20-5-15 7-18 44-12l31 5 15-22c10-15 15-28 15-43 0-15 4-26 16-43 18-25 24-28 25-14 0 5 3 2 7-7 5-13 11-17 27-19 11-2 24-8 29-14 6-6 13-10 17-10 8 0 9-11 1-28-5-11-4-17 6-38 12-24 14-41 8-98l-2-28-35-1c-20-1-48 2-63 6z m127 5c0 4 12 16 26 26 13 10 26 23 28 30 1 7 11 17 20 22 19 11 42 49 37 60-1 4-12 12-22 18-11 5-24 15-28 22-6 9-17 13-42 18-18 4-37 6-42 4-12-3-33 13-33 25 0 9-11 11-19 2-4-3-6-2-8 6-4 15 12 22 30 14 11-5 15-5 16 0 1 3 9 15 17 26 17 24 48 42 71 42 21 0 20 7-4 33-11 12-20 24-22 27-1 3-12 7-26 9-24 4-24 3-24-10 0-11-2-13-8-11-5 2-12 3-16 3-4 0-7 5-7 10 0 7 4 10 10 10 7 0 11 5 13 16 4 19 10 19 24 2 11-12 35-18 35-8 0 2-7 11-15 19-19 18-21 30-4 25 21-7 34-18 37-33 2-7 12-23 24-34l20-20 9 11c6 8 16 12 32 14l24 2 16-35c63-135-2-289-143-343-22-8-26-9-26-2z m-230 425c61 63 170 84 259 51l20-7-19 0c-12 0-24-5-34-13-12-11-20-13-45-13-25 0-31-2-37-11-5-9-11-10-41-10-29 1-50-2-113-18-11-2-10 0 10 21z m135 27c2 1 2 4 1 6-4 6-29 5-38-2-14-11 18-15 37-4z m74 9c9 6 10 10 7 14-7 6-48-10-44-18 4-7 25-5 37 4z"/>
<glyph glyph-name="puzzle" unicode="&#57365;" d="M6 6c-4 5-6 38-6 120 0 97 1 115 8 122 6 6 19 8 48 8l40 0-10 19c-19 35 2 73 41 73 40 0 63-37 45-72-4-9-8-17-8-18 0-1 17-2 38-2l39 0 0-66-20 3c-29 4-54-10-67-36-13-27-13-31-1-58 12-26 39-40 68-36l20 3 0-66-115 0c-82 0-115 2-120 6z m250 40c0 25-2 46-4 46-2 0-9-3-16-8-21-11-41-9-57 8-40 40 4 105 55 80 9-4 18-8 20-8 1 0 2 17 2 38l0 39 65 0-2-23c-5-41 25-73 68-72 40 1 69 36 62 77l-3 18 66 0 0-115c0-82-2-115-6-120-5-4-40-6-128-6l-122 0z m96 128c-18 14-23 40-12 61 5 8 8 17 8 18 0 2-21 3-46 3l-46 0 0 98 13-11c28-21 74-4 81 29 4 21-9 46-27 55-20 11-30 10-50-2l-17-10 0 97 120 0c102 0 121-1 128-8 7-7 8-26 8-128l0-120-97 0 11-18c20-35-1-74-42-74-11 0-24 4-32 10z"/>
<glyph glyph-name="idea" unicode="&#57366;" d="M236 12c-6 6-15 15-21 20-6 5-9 12-8 14 2 3 25 5 52 5 39 0 48-1 48-7 0-4-3-10-6-13-4-3-13-11-21-18-19-16-29-16-44-1z m-31 62c-12 14 0 18 54 18 53 0 65-4 53-18-4-6-18-7-53-7-36 0-49 1-54 7z m-78 37c-12 12 15 58 34 58 19 0 20-15 4-38-15-20-31-28-38-20z m226 18c-18 25-18 37 1 39 10 1 16-3 27-20 16-24 16-37-1-40-8-1-15 5-27 21z m-150-13c-2 2-3 13-3 24 0 15-5 27-23 51-34 48-39 61-39 96 0 72 52 123 124 123 25-1 68-19 85-37 29-31 40-92 25-129-4-9-19-33-33-54-21-30-27-43-27-58l0-19-53 0c-29 0-54 1-56 3z m-155 102c-5 14 2 22 30 30 24 7 28 7 35 0 10-10 2-23-21-31-24-9-41-9-44 1z m371 0c-20 9-25 22-13 32 8 7 58-8 62-18 8-22-15-28-49-14z m-346 113c-25 9-32 19-20 31 7 7 11 7 31 2 28-8 38-18 30-30-7-12-15-12-41-3z m333-5c-8 3-8 19 0 26 3 3 16 8 28 12 23 7 37 1 37-14 0-12-51-30-65-24z m-268 99c-18 23-19 43-2 45 7 1 15-5 27-22 14-19 16-25 11-33-8-16-18-13-36 10z m206-14c-9 9-8 15 10 39 11 15 19 21 27 20 16-2 16-19-2-44-17-22-25-26-35-15z m-95 30c-12 7-12 57 0 66 12 11 25 0 27-23 3-37-8-54-27-43z"/>
<glyph glyph-name="thought" unicode="&#57367;" d="M110 6c-1 4-3 31-4 61-3 60-9 81-37 114-27 33-48 84-52 122-8 84 45 164 130 195 23 8 41 11 81 11 60 0 93-11 139-45 56-41 83-97 83-169l1-46 23-30c13-17 22-33 21-37-2-4-11-9-20-12l-17-4-2-43c-4-54-11-62-60-60-30 1-34 0-43-11-6-7-10-18-10-26 0-8-3-16-6-20-9-9-224-9-227 0z m113 199c10 31 17 39 44 46 11 3 29 13 39 23 11 9 29 21 41 26 13 5 22 12 22 17 0 4 4 11 10 15 17 10 13 36-8 64-11 13-22 24-26 24-4 0-7 2-7 5 0 7-35 22-42 18-2-2-9 0-15 5-14 13-102 14-116 1-5-5-17-9-25-9-18 0-43-17-43-30 0-5-4-13-10-18-6-6-10-15-10-23 1-7-3-22-7-32-11-25-11-34 3-55 6-10 12-23 13-28 2-14 9-21 24-21 7-1 17-5 22-10 6-4 22-10 36-11 23-3 26-5 28-18 5-23 17-18 27 11z"/>
<glyph glyph-name="skype" unicode="&#57368;" d="M320 9c-11 4-45 9-75 11-49 3-59 6-93 22-48 24-90 67-112 115-14 29-17 43-20 89-2 30-7 63-12 77-18 47-1 115 38 149 40 36 105 48 150 28 13-5 34-9 57-9 134 0 239-101 239-232 0-25 3-45 10-64 36-95-34-196-136-195-14 0-35 4-46 9z m-9 101c82 24 98 120 27 156-10 5-38 15-62 21-56 14-70 20-77 31-12 24 13 46 54 46 31 0 36-3 57-32 19-27 33-31 49-16 27 24-5 70-59 86-86 25-178-25-164-90 8-37 42-59 123-79 20-5 42-13 48-19 16-15 14-36-5-52-13-11-21-14-47-14-28 0-32 2-47 17-9 9-20 24-25 34-6 12-12 16-22 16-17 0-33-13-33-27 0-15 23-52 39-63 35-22 97-29 144-15z"/>
<glyph glyph-name="envelope" unicode="&#57369;" d="M2 87c3 5 174 143 185 150 3 2 17-6 30-17 32-26 46-26 78 0l26 20 95-77c53-42 96-77 96-79 0-1-115-2-256-2-160 0-255 2-254 5z m-2 166c0 78 1 141 3 141 2 0 41-31 87-70 69-56 84-71 78-76-4-3-43-35-87-71l-81-65z m428-73c-43 34-80 64-84 68-5 5 9 19 74 73 45 36 84 68 88 70 5 3 6-25 6-135 0-76-2-138-4-138-2 0-38 28-80 62z m-303 141l-123 101 127 2c70 1 184 1 255 0l127-2-121-99c-66-55-125-100-131-101-8-2-43 24-134 99z"/>
<glyph glyph-name="building" unicode="&#57370;" d="M0 97c0 49 2 82 5 82 3 0 6 21 6 47l2 46 38 17 39 17 1-43c1-33 3-43 9-43 6 0 8-9 8-43 0-24 2-44 4-44 14 0 16 19 17 151l2 136 62 41 63 41 0-487-256 0z m45-29c6 4 9 34 4 34-1 0-8-2-15-5-11-4-14-8-14-22 0-15 2-18 9-15 5 2 12 5 16 8z m42 33c0 19 0 19-18 12-10-4-13-9-13-23 0-17 0-17 16-12 12 5 15 9 15 23z m-49 17c10 4 13 8 13 21 0 14-1 15-11 13-7-2-14-3-16-3-4-1-5-36-1-36 1 0 8 2 15 5z m125 4c14 7 16 12 16 28 0 21 0 21-27 2-10-6-14-14-14-24 0-18 4-19 25-6z m-79 16c2 2 3 11 2 20-1 15-2 16-14 9-9-4-14-11-15-23-1-16 0-17 10-13 7 2 14 5 17 7z m156 52c1 21 1 21-11 14-6-4-17-11-23-15-9-5-11-12-11-27l0-19 21 13c20 11 22 15 24 34z m-204-21c7 4 10 11 10 23 0 17 0 17-13 12-10-5-13-10-13-23 0-19 2-20 16-12z m126 16c15 9 17 13 17 31l0 20-20-14c-17-11-21-16-21-31 0-20 1-20 24-6z m-90-1c7 4 10 11 10 23 0 17-1 18-13 12-10-4-13-9-13-23 0-18 1-19 16-12z m168 68c1 11-1 19-2 19-1 0-12-6-23-13-18-12-20-16-20-33l0-20 22 14c21 13 23 16 23 33z m-207-27c11 4 13 9 13 23 0 17 0 18-15 12-13-4-16-8-16-22 0-20 0-20 18-13z m36 16c10 5 13 10 13 23 0 20 0 20-18 12-10-5-13-10-13-23 0-20 0-20 18-12z m110 37c0 21 0 21-27 2-10-7-14-13-14-27l0-18 21 11c18 11 20 14 20 32z m41 7c18 12 21 16 21 33l0 20-23-14c-21-13-23-16-23-33 0-11 1-20 2-20 2 0 12 6 23 14z m-58 28c14 8 17 14 17 28 0 10-1 17-2 17-2 0-11-5-21-11-14-9-18-15-18-28 0-20 1-20 24-6z m79 67c0 11-2 19-3 19-1 0-12-6-23-13-18-12-20-16-20-33l0-20 23 14c20 12 23 16 23 33z m-80-5c15 10 18 14 18 31 0 21 0 21-27 2-10-7-14-14-14-27 0-10 1-17 3-17 1 0 11 5 20 11z m59 38c18 12 21 16 21 33l0 20-23-15c-20-14-23-19-23-34 0-10 1-18 2-18 2 0 12 6 23 14z m46-156c0 210 1 240 8 238 4-2 28-17 54-34l46-31 0-415-108 0z m118-149c0 50 1 92 1 92 1 0 29-9 63-20l61-20 2-72 1-73-128 0z m102-47c0 12-3 16-16 20-23 8-25 8-25-9 0-12 4-17 12-21 22-8 29-6 29 10z m-51 13c0 12-2 18-9 20-5 1-13 4-18 6-7 3-9 1-9-14 0-16 2-19 17-23 9-3 17-6 18-6 1 0 1 7 1 17z m51 46c0 14-2 18-12 20-7 2-16 5-21 7-7 2-8 0-7-14 2-15 5-19 20-24 10-3 18-6 19-6 1 0 1 7 1 17z m-52 14c-1 13-5 18-18 23l-17 7 0-18c0-14 3-18 14-22 22-8 23-8 21 10z"/>
<glyph glyph-name="information" unicode="&#57371;" d="M330 5c-5 3-74 5-152 5l-142 0 0 389 15 0c15 0 16 2 16 21 0 19 1 20 16 21l17 2 5 72 3-36c2-35 3-36 16-38 12-1 14-4 15-20 2-17 3-19 18-21l17-1 0-187c0-148 1-187 6-185 5 2 7 38 8 156l2 155 12 0c7 0 14 2 16 5 1 3 8 5 15 5 11 0 13 2 13 21l0 20 56 0 0-20c0-20 1-21 15-21 9 0 16-2 16-5 0-3 7-5 15-5l16 0 0-102 16-3c69-15 110-82 91-150-16-57-92-99-141-78z m87 33c52 40 52 124-2 159-37 25-80 23-111-4-52-46-49-122 8-158 21-14 27-15 55-13 24 1 35 5 50 16z m-65 11c-2 2-2 21 0 43l3 39-11-10c-13-12-15-5-3 11 5 8 12 11 19 10 11-1 11-3 9-41-1-39 2-46 14-33 5 4 6 4 6-2 0-15-27-27-37-17z m8 122c-4 12 6 23 15 14 5-5 4-8-3-14-8-8-8-8-12 0z m-242-117c0 28 0 29-14 27-13-1-15-4-16-21-2-27 1-34 17-34 12 0 13 1 13 28z m153-18c0 11-19 46-26 46-2 0-4-13-4-28 0-28 0-28 15-28 12 0 15 2 15 10z m16-8c0 1-3 4-5 5-3 2-6 1-6-2 0-3 3-5 6-5 2 0 5 1 5 2z m-205 85c0 25 0 25-15 25-15 0-16 0-16-25 0-25 1-26 16-26 15 0 15 1 15 26z m36 0c0 25-1 25-16 25-14 0-15-1-15-22 0-25 2-29 19-29 11 0 12 2 12 26z m41 0c0 25-1 25-16 25-15 0-15 0-15-25 0-25 0-26 15-26 15 0 16 1 16 26z m71 0c0 24 0 25-12 25-12 0-13-1-13-25 0-24 1-26 13-26 12 0 12 2 12 26z m-148 61c0 25 0 26-15 26-15 0-16-1-16-26 0-25 1-26 16-26 15 0 15 1 15 26z m77 0c0 25-1 26-16 26-15 0-15-1-15-26 0-25 0-26 15-26 15 0 16 1 16 26z m102-5c14 27 13 31-5 31-15 0-15-1-15-26 0-14 2-26 5-26 2 0 9 10 15 21z m-179 67c0 25 0 25-15 25-15 0-16 0-16-25 0-26 1-26 16-26 15 0 15 0 15 26z m77 0c0 25-1 25-16 25-15 0-15 0-15-25 0-26 0-26 15-26 15 0 16 0 16 26z m71 0c0 23 0 25-12 25-12 0-13-2-13-25 0-24 1-26 13-26 12 0 12 2 12 26z m71-20c3 3 6 15 6 26 0 18-1 19-15 19-15 0-16 0-16-25 0-22 2-26 10-26 5 0 12 3 15 6z m34 14c9 4 13 9 13 18 0 11-2 13-15 13-14 0-16-1-16-18 0-20 0-20 18-13z m-217 67c0 25-1 26-16 26-15 0-15-1-15-26 0-25 0-26 15-26 15 0 16 1 16 26z m41 0c0 25-1 26-16 26-15 0-15-1-15-26 0-25 0-26 15-26 15 0 16 1 16 26z m112 0c0 25 0 26-15 26-15 0-15-1-15-26 0-25 0-26 15-26 15 0 15 1 15 26z m77 0c0 25 0 26-15 26-15 0-16-1-16-26 0-25 1-26 16-26 15 0 15 1 15 26z m-266 61c0 25 0 26-15 26-15 0-16-1-16-26 0-25 1-25 16-25 15 0 15 0 15 25z m36 0c0 25-1 26-16 26-15 0-15-1-15-26 0-25 0-25 15-25 15 0 16 0 16 25z m178 9c-1 13-4 15-21 16-18 2-19 1-19-14 0-15 1-16 21-16 20 0 21 1 19 14z m-164 52l2 16-57 0 0-36 27 1c26 2 27 2 28 19z"/>
<glyph glyph-name="map" unicode="&#57372;" d="M430 60l-74 18-83-16c-45-9-89-16-97-16-14 0-171 29-173 32-1 1 3 42 9 91l10 89-11 92c-6 51-10 93-9 93 0 1 37-15 82-34l81-34 189 91 78-30c49-19 77-33 77-37 0-4-5-43-10-88-9-77-9-83 0-161 5-44 10-87 12-95 1-8 0-14-2-14-3 1-38 9-79 19z m-209 10c6 1 9 8 9 18 0 36 31 73 67 79 31 5 32 7 28 43l-4 32-28-3c-46-6-51-8-54-24-5-22-17-39-37-48-16-8-17-11-20-38-2-16-5-38-6-49l-3-20 20 4c11 2 24 4 28 6z m263 67c-4 38-9 75-10 81-3 10-10 12-68 19-35 5-65 8-66 7-2-2 12-147 15-150 1-1 13-3 26-5l25-4-3 15c-2 9-5 33-7 55-3 39-3 40 9 39 7 0 21-2 33-5 18-4 17-4-10-2l-30 3 4-30c9-82 8-78 22-81 8-2 25-6 39-10 14-3 27-5 28-5 1 1-2 34-7 73z m-323-38c2 17 4 37 6 44 2 11-1 15-21 24l-22 10-16-13c-12-10-17-20-21-41-8-44-8-45 19-50 51-11 51-11 55 26z m129-17c20 4 39 8 41 10 3 1 4 18 2 36l-3 33-22 0c-36-1-66-30-71-69-3-19-2-21 7-19 5 2 26 6 46 9z m-210 34c3 30 5 36 21 50 17 16 17 16 11 40-6 23-7 24-30 27-13 2-28 4-34 6-10 2-11-1-19-68-5-39-9-74-9-77 0-6 13-9 45-11 10-1 11 2 15 33z m130 73c33 33 11 87-36 87-17 0-24-3-36-14-33-33-11-88 36-88 17 0 25 3 36 15z m-58 15c-11 12-11 33 1 44 20 18 52 4 52-24 0-26-36-40-53-20z m-33 57c5 9 17 19 27 24 19 7 19 8 16 31-2 13-3 28-3 33 0 7-8 14-29 22-34 16-33 15-33 3 0-16-24-40-46-47-14-4-20-8-18-13 2-4 3-16 3-26 0-27 5-32 34-37 39-6 40-6 49 10z m162-7c16 2 32 5 35 6 5 3 13 85 9 89-1 1-21 0-44-3l-42-6-12-29-12-29 12-18c6-10 14-17 17-16 3 1 20 4 37 6z m197 23c2 17 3 32 1 34-1 1-32 10-68 19l-67 17-3-26c-2-15-3-34-3-43l0-16 52-6c29-3 55-7 58-8 3-1 10-2 16-2 10 0 11 4 14 31z m-251 51l7 18 45 6c24 3 45 6 46 7 5 5 9 78 4 76-3-1-39-18-80-38l-76-36 3-18c2-10 3-25 3-34 0-13 3-17 14-21 16-5 17-4 34 40z m260 33l2 35-66 25c-36 14-67 24-68 23-3-3-12-87-10-90 5-4 134-35 137-32 2 2 4 19 5 39z m-419-22c9 5 24 30 24 41 0 7-64 38-69 34-1-2 0-21 3-44 6-42 6-42 20-39 7 2 17 5 22 8z"/>
<glyph glyph-name="location-community" unicode="&#57373;" d="M219 65c-46 81-93 179-109 229-22 65-12 119 31 166 60 67 170 67 230 0 41-45 52-98 34-159-18-60-137-296-149-296-2 0-18 27-37 60z m91 175c91 46 90 174 0 222-29 15-79 15-108 0-101-53-87-196 23-232 20-7 63-2 85 10z m-102 35c-5 16-3 79 3 93 3 7 6 18 7 23 1 13 13 19 21 13 9-8 9-20-1-23-5-2-6-6-2-17 6-16 13-21 26-17 16 4 22 26 11 38-8 8-8 10-1 17 11 11 26 4 24-11-2-6-1-12 2-13 13-5 14-106 0-111-4-1-6 6-6 27 0 40-6 50-26 43-9-3-18-3-24 0-12 7-22-13-22-46 0-24-7-33-12-16z m-29 126c0 9-1 10-5 3-3-4-5-5-5-2 0 7 10 18 16 18 3 0 3-6 1-14-3-12-2-13 10-11 8 2 14 1 14-1 0-3-7-5-15-5-13 0-16 2-16 12z m123-4c1 6 2 7 4 3 1-3 1-8-1-9-2-2-3 1-3 6z m24 7c3 11 2 12-10 10-8-2-12-1-11 1 5 8 23 5 26-3 2-5 1-11-2-14-4-4-5-2-3 6z"/>
<glyph glyph-name="location-gym" unicode="&#57374;" d="M219 65c-46 81-93 179-109 229-22 65-12 119 31 166 60 67 170 67 230 0 41-45 52-98 34-159-18-60-137-296-149-296-2 0-18 27-37 60z m91 175c91 46 90 174 0 222-29 15-79 15-108 0-101-53-87-196 23-232 20-7 63-2 85 10z m-105 65c0 4-4 7-8 7-5 0-8 5-8 13 0 7-3 13-10 14-5 2-10 6-10 9 0 4 5 7 10 9 7 2 10 7 10 15 0 7 3 12 8 12 4 0 8 3 8 8 0 4 3 7 7 7 6 0 8-5 8-20l0-21 67 0 0 18c0 10 2 19 5 21 7 4 30-18 30-29 1-5 5-10 11-11 5-2 10-5 10-9 0-3-5-7-10-9-6-1-10-6-11-11 0-10-23-33-30-29-3 2-5 12-5 21l0 18-67 0 0-21c0-14-2-20-8-20-4 0-7 3-7 8z"/>
<glyph glyph-name="location-hospital" unicode="&#57375;" d="M219 65c-46 81-93 179-109 229-22 65-12 119 31 166 60 67 170 67 230 0 41-45 52-98 34-159-18-60-137-296-149-296-2 0-18 27-37 60z m91 175c91 46 90 174 0 222-29 15-79 15-108 0-101-53-87-196 23-232 20-7 63-2 85 10z m-76 58l-1 32-32 2-32 1 0 40 32 2 32 1 3 64 40 0 3-64 32-1 32-2 0-40-32-1-32-2-3-64-40 0z"/>
<glyph glyph-name="location-pressa" unicode="&#57376;" d="M219 65c-46 81-93 179-109 229-22 65-12 119 31 166 60 67 170 67 230 0 41-45 52-98 34-159-18-60-137-296-149-296-2 0-18 27-37 60z m91 175c91 46 90 174 0 222-29 15-79 15-108 0-101-53-87-196 23-232 20-7 63-2 85 10z m-135 43c-4 4-6 27-6 71l0 66 77 0c73 0 77-1 77-10 0-7 3-11 10-11 9 0 10-3 10-55 0-36-2-57-6-61-9-9-153-9-162 0z m137 65l0 62-133 0 0-58c0-32 2-60 4-62 1-2 31-3 66-3l63 0z m-123-10l0 26 52 0 0-52-52 0z m62-21c0 3 8 6 18 6 10 0 18-3 18-6 0-2-8-5-18-5-10 0-18 3-18 5z m0 21c0 3 10 5 23 5 13 0 23-2 23-5 0-3-10-5-23-5-13 0-23 2-23 5z m0 20c0 3 10 6 23 6 13 0 23-3 23-6 0-2-10-5-23-5-13 0-23 3-23 5z m-59 21c-2 3 16 5 51 5 33 0 54-2 54-5 0-3-20-5-51-5-28 0-52 2-54 5z"/>
<glyph glyph-name="location-rent" unicode="&#57377;" d="M219 65c-46 81-93 179-109 229-22 65-12 119 31 166 60 67 170 67 230 0 41-45 52-98 34-159-18-60-137-296-149-296-2 0-18 27-37 60z m91 175c91 46 90 174 0 222-29 15-79 15-108 0-101-53-87-196 23-232 20-7 63-2 85 10z m-105 36c0 6-4 11-8 11-14 0-9 36 10 61l17 23 64 0 17-23c19-25 24-61 10-61-4 0-8-5-8-11 0-6-3-10-10-10-7 0-10 4-10 10 0 10-4 11-31 11-27 0-31-1-31-11 0-6-3-10-10-10-7 0-10 4-10 10z m10 39c0 5-3 7-6 6-10-3-11-14-2-14 4 0 8 4 8 8z m96-2c-3 10-14 11-14 2 0-4 4-8 8-8 5 0 7 3 6 6z m-22 35c-7 14-10 16-33 16-23 0-26-2-33-16l-8-15 82 0z m-88 37c-17 17 1 49 24 42 7-1 26-4 41-5 44-4 52-7 50-16-1-8-7-9-33-10-22 0-35-3-41-9-11-10-33-11-41-2z m19 20c0 2-3 5-8 5-7 0-10-6-4-12 4-4 12 0 12 7z"/>
<glyph glyph-name="location-shop" unicode="&#57378;" d="M219 65c-46 81-93 179-109 229-22 65-12 119 31 166 60 67 170 67 230 0 41-45 52-98 34-159-18-60-137-296-149-296-2 0-18 27-37 60z m91 175c91 46 90 174 0 222-29 15-79 15-108 0-101-53-87-196 23-232 20-7 63-2 85 10z m-104 43c-6 8-27 97-24 102 6 9 31 4 36-7 7-16 17-17 22-2 7 18 25 18 32 0 5-15 15-14 22 2 5 11 30 16 36 7 3-5-18-94-24-102-3-4-20-7-50-7-30 0-47 3-50 7z m20 117c2 24 4 28 16 35 13 7 15 7 28 0 12-7 14-11 16-35 1-15-1-26-4-26-3 0-6 9-7 21-3 41-35 41-38 0-1-12-4-21-7-21-3 0-5 11-4 26z"/>
<glyph glyph-name="location-zoo" unicode="&#57379;" d="M219 65c-46 81-93 179-109 229-22 65-12 119 31 166 60 67 170 67 230 0 41-45 52-98 34-159-18-60-137-296-149-296-2 0-18 27-37 60z m91 175c91 46 90 174 0 222-29 15-79 15-108 0-101-53-87-196 23-232 20-7 63-2 85 10z m-108 37c-10 11-10 14 9 35 9 11 21 27 26 36 7 14 11 16 25 15 13-2 17-5 22-23 4-11 14-26 23-34 16-15 20-26 9-33-3-2-29-4-56-4-41-1-52 1-58 8z m-28 67c-3 6-5 18-3 28l4 17 14-10c18-13 24-28 16-39-9-11-25-9-31 4z m137-8c-7 7-3 18 11 33l15 16 4-19c2-11 1-21-3-26-7-7-21-10-27-4z m-90 41c-12 9-14 22-5 46l6 16 14-13c28-24 14-69-15-49z m51 4c-8 10-2 30 13 43l12 11 5-13c10-27 5-48-13-48-6 0-14 3-17 7z"/>
<glyph glyph-name="location-taxi" unicode="&#57380;" d="M219 65c-46 81-93 179-109 229-22 65-12 119 31 166 60 67 170 67 230 0 41-45 52-98 34-159-18-60-137-296-149-296-2 0-18 27-37 60z m91 175c91 46 90 174 0 222-29 15-79 15-108 0-101-53-87-196 23-232 20-7 63-2 85 10z m-110 52c0 13-2 15-16 15-14 0-15 2-15 18 0 18 0 18 20 18 20 0 21-1 21-15 0-12 2-16 10-16 8 0 10 4 10 16 0 14 2 15 21 15 19 0 20-1 20-15 0-12 3-16 11-16 8 0 10 4 10 16 0 14 1 15 20 15 20 0 21 0 21-18 0-16-1-18-16-18-13 0-15-2-15-15 0-15-1-16-20-16-20 0-21 1-21 16 0 12-2 15-10 15-8 0-10-3-10-15 0-15-1-16-21-16-19 0-20 1-20 16z m0 92c0 14-3 20-9 22-5 1 0 2 11 3 12 0 18-1 14-3-3-1-6-11-6-22 0-11-2-20-5-20-3 0-5 9-5 20z m20-7c3 7 8 18 11 24 6 10 7 10 16-11 5-13 8-24 6-26-2-2-5 0-6 3-3 8-22 9-22 2 0-3-2-5-5-5-3 0-3 4 0 13z m48-3c7 10 7 13 0 23-4 7-6 13-3 13 3 0 7-4 8-9 3-7 5-7 14 1 11 10 14 4 4-7-5-5-5-8 0-17 8-13 3-19-6-7-6 8-7 9-10 1-2-5-6-8-9-8-3 0-2 4 2 10z m34 10c0 11 2 21 5 23 3 2 5-6 5-20 0-13-2-23-5-23-3 0-5 9-5 20z"/>
<glyph glyph-name="location-tube" unicode="&#57381;" d="M219 65c-46 81-93 179-109 229-22 65-12 119 31 166 60 67 170 67 230 0 41-45 52-98 34-159-18-60-137-296-149-296-2 0-18 27-37 60z m91 175c91 46 90 174 0 222-29 15-79 15-108 0-101-53-87-196 23-232 20-7 63-2 85 10z m-121 42c0 2 6 14 14 27 7 13 10 24 7 24-3 0-5 16-5 46 0 41 1 46 11 53 7 5 23 8 40 8 17 0 33-3 40-8 10-7 11-12 11-53 0-30-2-46-5-46-3 0 0-11 7-24 8-13 14-25 14-27 0-2-30-3-67-3-37 0-67 1-67 3z m108 18c0 6-8 7-41 7-33 0-41-1-41-7 0-7 8-8 41-8 33 0 41 1 41 8z m-14 25c-2 5-10 8-27 8-17 0-25-3-27-8-3-6 2-8 27-8 25 0 30 2 27 8z m-48 30c1 5-2 9-6 9-10 0-16-9-11-16 4-8 15-3 17 7z m59-1c0 4-4 8-9 9-8 1-12-10-5-17 5-5 14 0 14 8z m2 42c3 22-7 29-40 29-16 0-31-3-35-6-6-7-8-31-2-37 2-2 20-3 39-2 36 1 36 2 38 16z"/>
<glyph glyph-name="location-university" unicode="&#57382;" d="M219 65c-46 81-93 179-109 229-22 65-12 119 31 166 60 67 170 67 230 0 41-45 52-98 34-159-18-60-137-296-149-296-2 0-18 27-37 60z m91 175c91 46 90 174 0 222-29 15-79 15-108 0-101-53-87-196 23-232 20-7 63-2 85 10z m-83 60c-23 16-27 21-27 36 0 18 7 19 34 4l25-14 26 16 27 16 3-16c4-18-5-30-36-45-27-13-28-13-52 3z m-58 30c0 11 2 17 5 16 3-2 5-9 5-16 0-6-2-13-5-15-3-2-5 4-5 15z m45 28l-40 25 42 13 43 13 37-11c20-7 38-14 40-15 3-3-72-51-79-50-2 0-22 12-43 25z"/>
<glyph glyph-name="fax" unicode="&#57383;" d="M95 59c-17 9-39 32-39 42 0 4-6 7-15 7-10 0-21 4-28 12l-13 13 0 246 13 13c7 8 18 12 28 12 10 0 15 3 15 8 0 4 8 16 18 25 29 29 69 31 101 5 8-8 17-19 20-26l4-12 288 0 12-12 13-13 0-246-13-13-12-12-288 0-4-12c-14-36-65-55-100-37z m55 24c23 12 24 14 24 173 0 111-2 153-6 159-18 23-53 27-74 8l-15-13 0-308 15-13c15-13 38-16 56-6z m147 73c0 18-1 18-21 18-20 0-20 0-20-18 0-17 0-18 20-18 20 0 21 1 21 18z m67 0c0 18-1 19-20 17-13-1-19-4-21-11-3-17 4-24 22-24 18 0 19 1 19 18z m69 0c0 14-2 16-20 17-19 2-19 1-19-17 0-18 0-18 19-17 18 2 20 3 20 17z m-136 67c0 17-1 18-21 18-20 0-20-1-20-18 0-18 0-18 20-18 20 0 21 0 21 18z m67 0c0 18-1 18-20 17-13-1-19-5-21-11-3-17 4-24 22-24 18 0 19 1 19 18z m69 0c0 14-2 15-20 17-19 1-19 1-19-17 0-19 0-19 19-17 18 1 20 3 20 17z m-11 89l0 39-76 1c-58 1-77 0-81-5-6-10-5-63 2-70 5-4 28-6 81-4l74 1z"/>
<glyph glyph-name="certificate" unicode="&#57384;" d="M282 41l0 38 51 1 0-37c0-21-2-38-5-38-2 0-8 5-13 10l-10 11-23-23z m-174 31c-10 10-11 17-11 215 0 198 1 205 11 215 9 9 17 10 99 10l90 0 0-55c0-75 3-78 69-78l49 0 0-149c0-141-1-149-11-158-7-8-17-11-33-11-22 0-23 1-23 17 0 9 4 22 8 30 23 40-12 92-58 85-22-4-40-20-47-43-5-14-4-20 5-39 5-12 10-28 10-36l0-14-74 0c-67 0-75 1-84 11z m256 166c0 7-16 8-108 8-92 0-108-1-108-8 0-7 16-8 108-8 92 0 108 1 108 8z m0 46c0 7-16 8-108 8-92 0-108-1-108-8 0-6 16-8 108-8 92 0 108 2 108 8z m0 51c0 7-16 8-108 8-92 0-108-1-108-8 0-6 16-7 108-7 92 0 108 1 108 7z m-98 52c0 6-10 7-59 7-49 0-59-1-59-7 0-7 10-8 59-8 49 0 59 1 59 8z m0 51c0 6-10 7-59 7-49 0-59-1-59-7 0-7 10-8 59-8 49 0 59 1 59 8z m23-340c-16 9-23 20-23 38 0 21 14 37 35 41 13 3 19 1 32-12 18-19 20-37 4-54-14-16-34-21-48-13z m29 302c-7 8-8 107-1 107 2 0 7-5 11-10 4-6 25-31 47-56l40-47-45 0c-28 0-48 3-52 6z"/>
<glyph glyph-name="departure" unicode="&#57385;" d="M238 99c-1 3-4 24-7 47-10 72-3 68-65 35l-53-28-55 48c-30 26-55 50-56 53-1 3 9 11 22 19l24 13 34-17 35-18 132 69c73 38 149 76 169 84 43 18 73 20 86 6 22-24-1-52-78-92l-51-27-75-168-27-16c-31-17-32-17-35-8z m-71 216c-7 9-13 20-13 22 0 3 13 12 29 21 29 16 30 16 79 12l49-4-130-68z"/>
<glyph glyph-name="documents" unicode="&#57386;" d="M29 9c-8 9-9 33-9 248 0 224 1 239 10 247 8 7 26 8 147 8l138 0 45-45c44-44 44-45 44-70 0-18-3-31-14-48l-14-24-1 37-2 37-76 0 0 77-241 0 0-440 318 0 0 37c0 33 2 40 15 60l15 23 0-70c0-57-1-71-8-78-7-7-30-8-183-8-164 0-176 1-184 9z m79 57c0 3 2 6 5 8 7 5 6 13-3 13-11 0-14 9-5 17 4 4 8 14 8 21 0 18 13 44 23 44 12 0 14-12 6-43-7-29-5-35 6-21 4 4 15 8 24 8 10 0 23 2 28 5 7 4 10 4 10 0 0-8-26-17-39-13-7 1-14-1-17-5-4-4-11-8-16-8-5 0-11-4-12-10-4-11-18-25-18-16z m7 31c2 3 1 5-2 5-3 0-5-2-5-5 0-3 1-5 2-5 1 0 3 2 5 5z m22 37c4 22-1 33-10 19-6-10-5-40 1-40 2 0 7 9 9 21z m138-30c1 17 5 36 9 42 18 34 103 161 108 161 4 0 9-3 12-7 5-6 0-18-31-65-26-40-35-58-31-62 4-4 17 12 45 54 35 55 39 59 49 53 5-3 9-9 8-12 0-3-25-42-55-87-46-71-57-84-77-96-38-21-41-19-37 19z m-181 122c-4 3-5 9-3 13 2 5 15 7 58 7 47 0 57-2 59-8 2-5 0-11-4-13-10-7-104-6-110 1z m0 61c-4 4-5 9-3 13 2 6 15 7 58 7 47 0 57-1 59-8 2-5 0-10-4-13-10-6-104-6-110 1z m334 11c-15 8-27 17-28 18-3 2 14 35 26 51l9 11 26-16c14-9 27-18 28-20 2-3-32-61-35-60-1 0-12 7-26 16z m-335 51c-14 17 1 20 94 18 88-1 92-1 92-11 0-10-4-10-90-12-69-1-92 0-96 5z m0 62c-13 15 1 19 58 18 52-1 56-2 56-12 0-9-4-10-54-11-40-1-56 0-60 5z"/>
<glyph glyph-name="house" unicode="&#57387;" d="M0 241l0 189 118 0 0-291-34-3-1-43-1-42-82 0z m91-40l2 24-52 0 0-22c0-12 2-24 4-26 2-2 13-3 24-2l21 2z m0 79l-1 25-46 0-2-25-2-24 53 0z m0 80l2 24-52 0 0-22c0-12 2-24 4-26 2-2 13-3 24-2l21 1z m47-101l0 207 236 0 0-415-92 0 0 92-52 0 0-92-92 0z m103-44l0 26-57 0 0-52 57 0z m87 0l0 26-57 0 0-52 57 0z m-87 87l0 26-57 0 0-52 57 0z m87 0l0 26-57 0 0-52 57 0z m-87 87l0 26-57 0 0-51 57 0z m87 0l0 26-57 0 0-51 57 0z m101-296l-1 43-34 3 0 291 118 0 0-379-82 0z m41 108l2 24-52 0 0-51 24 1 24 2z m0 79l-2 25-24 1-24 2 0-52 52 0z m0 80l2 24-52 0 0-52 24 2 24 1z"/>
<glyph glyph-name="library" unicode="&#57388;" d="M2 14c2 8 6 23 9 33l5 20 479 0 6-25c4-13 8-28 9-33 3-8-12-9-254-9l-257 0z m29 181c0 77-2 100-8 112l-8 16 98 0-8-16c-6-12-8-35-8-112l0-98-66 0z m128-2c-1 74-2 99-8 109-4 7-7 15-7 17-1 2 21 4 48 4l49 0-8-16c-6-12-8-35-8-112l0-98-66 0z m128 0c-1 74-2 99-8 109-4 7-7 15-7 17-1 2 21 4 48 4l49 0-8-16c-6-12-8-35-8-112l0-98-66 0z m128 0c-1 74-2 99-8 109-4 7-7 15-7 17-1 2 21 4 48 4l49 0-8-16c-6-12-8-35-8-112l0-98-66 0z m-402 167c5 4 62 40 126 80l116 72 117-72c64-40 122-76 127-80 9-6-27-7-243-7-215 0-252 1-243 7z m263 34c29 29-12 70-41 43-13-12-12-35 2-45 15-11 27-10 39 2z"/>
<glyph glyph-name="passport" unicode="&#57389;" d="M109 6c-9 9-9 378 0 387 8 9 286 9 294 0 9-9 9-378 0-387-8-9-286-9-294 0z m196 110c41 21 64 58 64 103-1 67-47 114-113 114-45 0-82-23-103-63-12-24-13-74-1-97 29-59 97-84 153-57z m-74 20c-14 18-14 28 2 28 11 0 13-2 13-21 0-11-1-20-2-20-2 0-7 6-13 13z m35 6c0 20 1 22 13 22 16 0 17-11 0-29l-12-15z m-74 4c-20 17-20 17-7 18 11 0 16-4 22-16 4-9 7-17 6-18-1-1-10 6-21 16z m105-17c0 11 18 35 26 35 6 0 10-3 9-6-2-6-35-33-35-29z m-135 58c-7 18-4 23 15 23 16 0 18-1 18-15 0-14-2-16-15-16-9 0-16 3-18 8z m48 8c0 14 1 15 18 15 16 0 18-1 18-15 0-15-2-16-18-16-17 0-18 1-18 16z m56 0c0 14 2 15 18 15 17 0 18-1 18-15 0-15-1-16-18-16-16 0-18 1-18 16z m51 0c0 14 2 15 18 15 12 0 18-2 18-7 0-16-6-24-21-24-13 0-15 2-15 16z m-158 41c0 18 9 30 23 30 12 0 13-1 12-19-2-17-3-19-19-21-14-1-16 0-16 10z m52 8c1 18 3 20 18 21 16 2 17 1 17-19 0-20-1-21-18-21-18 0-19 1-17 19z m55 2c0 20 1 21 17 19 15-1 17-3 18-21 2-18 1-19-17-19-17 0-18 1-18 21z m55-17c-2 2-4 11-4 20 0 15 2 17 13 17 14 0 23-13 23-30 0-8-3-11-14-11-8 0-16 2-18 4z m-130 66c18 16 25 16 18-1-4-9-10-12-19-12l-13 0z m29-9c0 3 6 12 13 20l12 14 1-19c0-17-2-19-13-19-7 0-13 2-13 4z m46 15l1 19 12-14c16-19 16-24 0-24-11 0-13 2-13 19z m37-7c-7 17 0 17 18 1l14-13-13 0c-9 0-15 3-19 12z m-165 128c7 4 57 26 111 49 118 51 115 51 115-13l0-43-120 0c-102 0-117 1-106 7z"/>
<glyph glyph-name="support" unicode="&#57390;" d="M221 21c-55 11-115 51-146 99-29 44-40 80-42 133l-1 46-16 5c-9 3-16 7-16 10 0 8 88 96 96 96 6 0 7-4 27-81 14-56 14-54-10-51l-21 4 0-23c0-12 5-37 10-55 40-124 184-166 286-83 24 20 49 59 58 90 6 24 11 26 40 17 21-6 23-8 22-21-1-8-10-32-20-53-49-101-157-155-267-133z m-52 162c0 16 14 34 42 54 21 16 25 31 10 39-7 4-13 3-23-2-14-7-29-6-29 3 0 2 6 9 13 14 28 22 74 6 74-25 0-22-7-33-33-51-13-9-23-18-23-21 0-2 12-5 28-5 25 0 28-1 28-10 0-9-3-10-44-10l-43 0z m164 1c0 16 0 16-31 16-39 0-39 4-2 59 25 37 32 43 44 43l14 0 0-41c0-33 2-41 8-41 4 0 8-4 8-10 0-6-4-10-8-10-5 0-8-5-8-16 0-13-2-15-12-15-11 0-13 2-13 15z m0 59c0 13-1 23-2 23-2 0-29-40-29-43 0-2 7-3 15-3 15 0 16 1 16 23z m118 38c0 14 1 15 26 18 31 3 35 2 35-15 0-12-15-18-47-18-13 0-14 2-14 15z m-20 58c-11 11-6 22 17 34 19 10 24 11 31 6 12-11 9-19-15-33-26-15-25-15-33-7z m-49 59c-8 10-8 11 8 30 17 22 28 25 37 11 4-7 2-12-10-28-19-23-24-25-35-13z m-219 34c-12 25-10 39 6 39 7 0 14-7 22-23 11-24 11-24 1-31-14-11-17-10-29 15z m156-4c-8 4-8 13-1 39 5 15 9 19 18 19 17 0 20-10 11-37-7-21-15-26-28-21z m-81 30c-5 29-1 40 14 38 9-2 12-7 15-25 5-29 3-36-13-36-11 0-13 3-16 23z"/>
<glyph glyph-name="list-view" unicode="&#57391;" d="M0 102l0 62 118 0 0-123-118 0z m150-1l1 60 178 2 178 1 0-123-359 0z m-150 152l0 59 118 0 0-117-118 0z m148 0l0 59 359 0 0-117-359 0z m-148 149l0 58 118 3 0-60 0-60-118 0z m148 0l0 59 359 0 0-118-359 0z"/>
<glyph glyph-name="sq" unicode="&#57392;" d="M55 27l-1 27-27 1c-19 1-27 4-27 9 0 6 7 8 26 8l25 0 0 368-25 0c-20 0-26 2-26 8 0 6 7 8 28 8l28 0 0 25c0 20 2 26 8 26 6 0 8-6 8-26l0-25 368 0 0 25c0 20 2 26 8 26 6 0 8-6 8-26l0-25 25 0c20 0 26-2 26-8 0-6-6-8-26-8l-25 0 0-368 25 0c20 0 26-2 26-8 0-6-6-8-25-8l-26 0-1-25c-2-33-11-34-15-2l-2 25-183 1-183 1-1-26c-2-37-14-39-16-3z m134 104l0 58-117 0 0-117 117 0z m123 0l0 58-117 0 0-117 117 0z m128 0l0 58-123 0 0-117 123 0z m-107 0l0 48 97 0 0-97-97 0z m-145 124l-1 60-58 1-57 2 0-123 118 0z m124 1l0 62-57-2-58-1-1-60-2-60 118 0z m127-1l-1 60-118 0-1-54c-1-29-1-56 1-60 2-5 17-6 61-6l60 0z m-250 126l0 59-117 0 0-117 117 0z m123 0l0 59-117 0 0-117 117 0z m128 1l0 59-120-3-1-58-2-57 123 0z"/>
<glyph glyph-name="bedroom" unicode="&#57393;" d="M45 98c-7 3-9 11-9 28 0 17-2 23-9 26-19 5-24 11-26 24-1 10 1 15 11 19 11 5 14 10 14 24 0 13 4 21 14 31 15 14 15 16 17 74 2 65 6 75 39 89 24 10 296 10 321-1 30-12 39-33 39-94 0-52 0-53 15-67 11-11 15-19 15-32 0-14 3-19 14-24 10-4 12-9 11-19-2-13-7-19-26-24-7-3-9-9-9-26 0-23-8-34-25-34-12 0-21 17-21 39l0 23-348 0 0-23c0-32-15-46-37-33z m201 199c0 25-2 31-10 36-15 8-130 6-141-2-9-7-17-43-11-57 2-7 15-8 82-8l80 0z m181-1c0 39-5 42-80 42-34 0-65-2-71-5-8-5-10-11-10-36l0-31 162 3z"/>
<glyph glyph-name="bathroom" unicode="&#57394;" d="M82 63c0 8 16 24 25 24 9 0-2-19-15-26-8-4-10-3-10 2z m-26 28c0 7 20 24 24 20 2-2-1-8-6-14-9-10-18-13-18-6z m57 6c0 3 6 10 14 16 16 12 22 5 8-11-9-10-22-13-22-5z m-87 20c0 3 6 10 14 16 16 13 22 5 8-10-9-11-22-14-22-6z m61 5c0 7 25 29 29 25 2-2-2-9-8-16-13-13-21-17-21-9z m61 7c0 9 17 25 25 25 9 0 8-8-3-17-15-13-22-15-22-8z m-148 13c0 7 25 29 29 25 2-2-2-9-9-16-12-13-20-16-20-9z m61 8c0 8 17 24 25 24 9 0 8-7-3-16-15-13-22-16-22-8z m62 8c0 7 20 23 24 19 2-1-1-7-6-13-10-11-18-14-18-6z m61 5c0 2 6 10 13 16 10 9 13 10 13 4 0-4-4-11-9-16-11-9-17-11-17-4z m-6 66c-36 36-65 68-65 72 0 8 35 34 68 51l25 12 52-51 52-52-15-28c-8-16-23-38-33-49l-19-21z m-142-51c0 7 20 24 24 20 2-2-1-8-6-14-10-10-18-13-18-6z m61 11c8 14 26 24 26 14 0-8-16-24-25-24-5 0-5 3-1 10z m60-1c-4 6 21 30 26 25 2-2-3-9-10-17-7-7-14-11-16-8z m-90 21c0 7 25 29 29 25 1-2-2-9-9-16-12-13-20-17-20-9z m61 5c0 7 25 29 29 25 2-2 0-7-4-11-8-11-25-20-25-14z m-26 31c0 6 18 21 26 21 4 0 3-4-5-13-12-13-21-16-21-8z m165 74c-42 42-43 44-31 50 6 3 26 6 43 7 31 1 33 1 67 32 56 49 54 48 113 48l53 0 0-31-50 0-50 0-45-39c-42-37-44-40-45-60 0-12-3-28-6-36l-6-14z"/>
<glyph glyph-name="rooms" unicode="&#57395;" d="M148 165l0 165-66 63c-43 41-67 67-67 74 0 12 32 45 44 45 5 0 25-16 46-36 20-20 38-36 40-36 2 0 3 12 3 26l0 26 354 0 0-492-354 0z m150-109c2 6 6 11 9 11 4 0 7-5 9-11 2-8 7-10 30-10l28 0 0 302-44 0c-25 0-43 2-43 5 0 3 10 5 23 5l23 0 0 87-138 0 0-27c0-26 0-27 32-59 25-25 35-38 39-56 8-31 2-38-30-34-13 2-26 7-29 11-3 3-7 5-9 3-6-5-4-58 2-58 2 0 5-4 5-10 0-6-3-10-5-10-4 0-5-30-5-80l0-79 50 0c46 0 51 1 53 10z m-1 49c0 9 3 13 10 13 8 0 10-4 10-13 0-9-2-13-10-13-7 0-10 4-10 13z m0 51c0 10 3 13 11 13 8 0 10-3 9-12-3-17-20-18-20-1z m-4 46c-11 13-8 23 9 23 14 0 15-1 15-15 0-17-12-21-24-8z m-60 8c-5 8 2 15 16 15 9 0 12-3 12-10 0-7-3-10-12-10-7 0-14 2-16 5z m36 56c-2 3 0 5 5 5 4 0 8-2 8-5 0-3-3-5-5-5-3 0-6 2-8 5z m187-169l0 51-72 0 0-102 72 0z m0 156l0 95-72 0 0-189 72 0z m-199 41c-3 26-10 28-28 8l-16-18 13-3c24-7 33-3 31 13z m-29 23c5 6 8 11 7 11-2 0-7-5-12-11-5-5-8-10-7-10 1 0 7 5 12 10z m125 85c0 26-2 43-5 43-3 0-5-17-5-43 0-26 2-44 5-44 3 0 5 18 5 44z m21 0c0 26-2 43-5 43-3 0-5-17-5-43 0-26 2-44 5-44 3 0 5 18 5 44z m20 0c0 26-2 43-5 43-3 0-5-17-5-43 0-26 2-44 5-44 3 0 5 18 5 44z m21 0c0 26-2 43-5 43-3 0-6-17-6-43 0-26 3-44 6-44 3 0 5 18 5 44z m20 0c0 26-2 43-5 43-3 0-5-17-5-43 0-26 2-44 5-44 3 0 5 18 5 44z m21 0c0 26-2 43-5 43-3 0-6-17-6-43 0-26 3-44 6-44 3 0 5 18 5 44z"/>
<glyph glyph-name="accept" unicode="&#57396;" d="M80 142l-80 81 41 40 61-61 62-61 153 156 153 156 21-21 21-20-172-175c-95-97-174-176-175-176-2 0-40 37-85 81z"/>
</font>
</defs>
</svg>
